<svg width="230" height="100" viewBox="0 0 230 100" fill="none" xmlns="http://www.w3.org/2000/svg">
<path d="M40.8636 48.3267L41.6023 43.9091H64.8125L64.0739 48.3267H55.0824L50.9915 73H45.7642L49.8551 48.3267H40.8636ZM61.9645 73L65.6009 51.1818H70.5866L69.9759 54.8182H70.2031C70.7997 53.5587 71.6425 52.5881 72.7315 51.9062C73.83 51.215 75.0043 50.8693 76.2543 50.8693C76.5478 50.8693 76.8651 50.8835 77.206 50.9119C77.5469 50.9309 77.8404 50.964 78.0866 51.0114L77.2912 55.7415C77.0734 55.6657 76.7325 55.5994 76.2685 55.5426C75.8139 55.4763 75.3641 55.4432 74.919 55.4432C73.9815 55.4432 73.1103 55.6468 72.3054 56.054C71.5099 56.4517 70.8376 57.0057 70.2884 57.7159C69.7391 58.4261 69.384 59.2453 69.223 60.1733L67.1065 73H61.9645ZM86.5668 73.4261C84.3793 73.4261 82.5705 72.9716 81.1406 72.0625C79.7107 71.1439 78.7069 69.8466 78.1293 68.1705C77.5611 66.4848 77.4664 64.5009 77.8452 62.2188C78.2145 59.9744 78.9673 58.0047 80.1037 56.3097C81.2401 54.6051 82.6605 53.2794 84.3651 52.3324C86.0791 51.3759 87.973 50.8977 90.0469 50.8977C91.3916 50.8977 92.6274 51.1155 93.7543 51.5511C94.8812 51.9773 95.8329 52.6402 96.6094 53.5398C97.3859 54.4394 97.9209 55.5852 98.2145 56.9773C98.508 58.3598 98.4938 60.0076 98.1719 61.9205L97.9304 63.4972H80.0327L80.5866 60.0312H93.5412C93.7116 59.0464 93.6548 58.1705 93.3707 57.4034C93.0866 56.6269 92.6132 56.0161 91.9503 55.571C91.2874 55.1259 90.4588 54.9034 89.4645 54.9034C88.4512 54.9034 87.5043 55.1638 86.6236 55.6847C85.7524 56.196 85.0185 56.8589 84.4219 57.6733C83.8253 58.4877 83.4465 59.3447 83.2855 60.2443L82.7031 63.5682C82.4948 64.9318 82.5421 66.0445 82.8452 66.9062C83.1482 67.768 83.6785 68.4025 84.4361 68.8097C85.1937 69.2169 86.1501 69.4205 87.3054 69.4205C88.063 69.4205 88.7637 69.3163 89.4077 69.108C90.0516 68.8996 90.6245 68.5871 91.1264 68.1705C91.6378 67.7443 92.0639 67.2235 92.4048 66.608L97.1065 67.1477C96.5857 68.4167 95.8234 69.5246 94.8196 70.4716C93.8158 71.4091 92.6132 72.1383 91.2116 72.6591C89.8196 73.1705 88.2713 73.4261 86.5668 73.4261ZM107.987 60.2159L105.885 73H100.729L104.365 51.1818H109.294L108.669 54.8892H108.939C109.621 53.6676 110.577 52.697 111.808 51.9773C113.039 51.2576 114.474 50.8977 116.112 50.8977C117.599 50.8977 118.849 51.2197 119.862 51.8636C120.875 52.4981 121.595 53.4309 122.021 54.6619C122.447 55.8835 122.514 57.3655 122.22 59.108L119.891 73H114.749L116.922 59.9034C117.168 58.4545 116.983 57.3182 116.368 56.4943C115.762 55.661 114.786 55.2443 113.442 55.2443C112.542 55.2443 111.714 55.4432 110.956 55.8409C110.198 56.2292 109.559 56.7926 109.038 57.5312C108.527 58.2699 108.177 59.1648 107.987 60.2159ZM133.158 73.3835C131.444 73.3835 129.981 72.9432 128.768 72.0625C127.556 71.1818 126.695 69.9034 126.183 68.2273C125.681 66.5511 125.625 64.5152 126.013 62.1193C126.42 59.6951 127.163 57.6496 128.243 55.983C129.322 54.3068 130.61 53.0426 132.107 52.1903C133.612 51.3286 135.203 50.8977 136.879 50.8977C138.167 50.8977 139.185 51.1155 139.933 51.5511C140.691 51.9773 141.259 52.4934 141.638 53.0994C142.017 53.696 142.296 54.2595 142.476 54.7898H142.689L144.493 43.9091H149.649L144.82 73H139.763L140.345 69.5625H140.033C139.673 70.0928 139.195 70.6562 138.598 71.2528C138.001 71.84 137.258 72.3419 136.368 72.7585C135.478 73.1752 134.408 73.3835 133.158 73.3835ZM135.203 69.1648C136.302 69.1648 137.286 68.8712 138.158 68.2841C139.038 67.6875 139.772 66.8589 140.359 65.7983C140.946 64.7377 141.358 63.5019 141.595 62.0909C141.832 60.6799 141.832 59.4536 141.595 58.4119C141.358 57.3703 140.899 56.5606 140.217 55.983C139.536 55.4053 138.641 55.1165 137.533 55.1165C136.396 55.1165 135.397 55.4148 134.536 56.0114C133.683 56.608 132.982 57.4318 132.433 58.483C131.884 59.5341 131.496 60.7367 131.268 62.0909C131.041 63.4545 131.027 64.6714 131.226 65.7415C131.434 66.8021 131.865 67.6402 132.518 68.2557C133.181 68.8617 134.076 69.1648 135.203 69.1648ZM150.054 73L150.608 69.733L164.173 55.6278L164.23 55.4432H153.349L154.074 51.1818H171.233L170.665 54.6903L157.668 68.554L157.611 68.7386H168.69L167.994 73H150.054ZM180.324 81.6364C178.468 81.6364 176.92 81.3854 175.679 80.8835C174.438 80.3911 173.482 79.7282 172.81 78.8949C172.137 78.0616 171.721 77.1383 171.56 76.125L176.389 75.0028C176.531 75.429 176.759 75.8504 177.071 76.267C177.393 76.6932 177.866 77.0436 178.491 77.3182C179.116 77.6023 179.95 77.7443 180.991 77.7443C182.45 77.7443 183.723 77.3892 184.812 76.679C185.902 75.9688 186.574 74.8134 186.83 73.2131L187.483 69.0795H187.227C186.886 69.6098 186.418 70.1544 185.821 70.7131C185.234 71.2718 184.491 71.7405 183.591 72.1193C182.701 72.4981 181.631 72.6875 180.381 72.6875C178.705 72.6875 177.251 72.2945 176.02 71.5085C174.789 70.7131 173.903 69.5294 173.364 67.9574C172.833 66.3759 172.767 64.3968 173.165 62.0199C173.553 59.6241 174.282 57.6023 175.352 55.9545C176.432 54.2973 177.724 53.0426 179.23 52.1903C180.736 51.3286 182.327 50.8977 184.003 50.8977C185.281 50.8977 186.299 51.1155 187.057 51.5511C187.814 51.9773 188.387 52.4934 188.776 53.0994C189.164 53.696 189.448 54.2595 189.628 54.7898H189.898L190.494 51.1818H195.565L191.901 73.3551C191.598 75.2206 190.902 76.7642 189.812 77.9858C188.723 79.2169 187.355 80.1307 185.707 80.7273C184.069 81.3333 182.275 81.6364 180.324 81.6364ZM182.426 68.6534C183.515 68.6534 184.491 68.3883 185.352 67.858C186.214 67.3277 186.934 66.5653 187.511 65.571C188.089 64.5767 188.491 63.3835 188.719 61.9915C188.946 60.6184 188.937 59.4157 188.69 58.3835C188.454 57.3513 187.994 56.5511 187.312 55.983C186.631 55.4053 185.741 55.1165 184.642 55.1165C183.496 55.1165 182.492 55.4148 181.631 56.0114C180.778 56.608 180.078 57.4271 179.528 58.4688C178.989 59.5009 178.61 60.6752 178.392 61.9915C178.184 63.3267 178.184 64.4962 178.392 65.5C178.61 66.4943 179.05 67.2708 179.713 67.8295C180.385 68.3788 181.29 68.6534 182.426 68.6534ZM204.472 60.2159L202.369 73H197.213L202.043 43.9091H207.085L205.267 54.8892H205.537C206.228 53.6487 207.17 52.6733 208.364 51.9631C209.566 51.2528 211.01 50.8977 212.696 50.8977C214.192 50.8977 215.452 51.215 216.474 51.8494C217.497 52.4839 218.217 53.4119 218.634 54.6335C219.06 55.8551 219.131 57.3466 218.847 59.108L216.517 73H211.361L213.548 59.9034C213.785 58.4356 213.591 57.2945 212.966 56.4801C212.35 55.6562 211.375 55.2443 210.04 55.2443C209.121 55.2443 208.274 55.4432 207.497 55.8409C206.721 56.2292 206.067 56.7926 205.537 57.5312C205.016 58.2699 204.661 59.1648 204.472 60.2159Z" fill="#FEF8F8"/>
<path d="M25.5465 31.0249C23.5501 30.6794 21.6904 32.0853 21.6904 33.8605V39.8654C21.6904 41.0807 22.6613 42.0577 23.974 42.4866C26.4626 43.2968 28.2539 45.3938 28.2539 47.8481C28.2539 51.0055 25.314 53.5671 21.6904 53.5671C18.0668 53.5671 15.1269 51.0055 15.1269 47.8481V18.3003C15.1269 16.7156 13.6638 15.4408 11.8452 15.4408H5.28174C3.46311 15.4408 2 16.7156 2 18.3003V47.8481C2 58.5116 13.2263 66.9351 25.9293 64.6118C33.3679 63.2535 39.3708 58.0112 40.9296 51.5416C43.3088 41.6645 35.8702 32.8121 25.5465 31.0249ZM30.5784 4.00289C29.3204 3.94332 28.2539 4.81307 28.2539 5.9092V9.67418C28.2539 10.6869 29.1564 11.5209 30.305 11.5686C47.999 12.4026 62.2198 24.9128 63.2454 40.342C63.3138 41.3428 64.2709 42.1292 65.4195 42.1292H69.8089C71.0669 42.1292 72.0651 41.1999 71.9967 40.1037C70.8344 20.6593 52.8943 5.02753 30.5784 4.00289ZM30.6195 15.4408C29.3478 15.3574 28.2539 16.239 28.2539 17.359V21.1836C28.2539 22.1844 29.1427 23.0065 30.2776 23.078C40.7792 23.8286 49.1476 31.2036 50.0911 40.3778C50.2005 41.3667 51.1303 42.1292 52.2653 42.1292H56.6682C57.9399 42.1292 58.9655 41.176 58.8697 40.068C57.7211 26.9502 45.6744 16.4535 30.6195 15.4408Z" fill="#F8F8F8"/>
</svg>
